<mxfile host="app.diagrams.net" agent="Mozilla/5.0 (Windows NT 10.0; Win64; x64) AppleWebKit/537.36 (KHTML, like Gecko) Chrome/133.0.0.0 Safari/537.36" version="26.0.14">
  <diagram name="Page-1" id="msI8SWVxXbzAfAw1XiNB">
    <mxGraphModel dx="1762" dy="778" grid="1" gridSize="10" guides="1" tooltips="1" connect="1" arrows="1" fold="1" page="1" pageScale="1" pageWidth="850" pageHeight="1100" math="0" shadow="0">
      <root>
        <mxCell id="0" />
        <mxCell id="1" parent="0" />
        <mxCell id="agBzgVk9PGOCox1UYQvY-1" value="Pelanggan" style="swimlane;whiteSpace=wrap;html=1;" vertex="1" parent="1">
          <mxGeometry x="300" y="340" width="500" height="1110" as="geometry">
            <mxRectangle x="140" y="520" width="140" height="30" as="alternateBounds" />
          </mxGeometry>
        </mxCell>
        <mxCell id="agBzgVk9PGOCox1UYQvY-109" style="edgeStyle=orthogonalEdgeStyle;rounded=0;orthogonalLoop=1;jettySize=auto;html=1;entryX=0.5;entryY=0;entryDx=0;entryDy=0;" edge="1" parent="agBzgVk9PGOCox1UYQvY-1" source="agBzgVk9PGOCox1UYQvY-2" target="agBzgVk9PGOCox1UYQvY-102">
          <mxGeometry relative="1" as="geometry" />
        </mxCell>
        <mxCell id="agBzgVk9PGOCox1UYQvY-2" value="Start" style="ellipse;whiteSpace=wrap;html=1;" vertex="1" parent="agBzgVk9PGOCox1UYQvY-1">
          <mxGeometry x="192.5" y="50" width="115" height="50" as="geometry" />
        </mxCell>
        <mxCell id="agBzgVk9PGOCox1UYQvY-82" value="Memilih halaman form belanja cepat" style="rounded=0;whiteSpace=wrap;html=1;" vertex="1" parent="agBzgVk9PGOCox1UYQvY-1">
          <mxGeometry x="50" y="250" width="123" height="50" as="geometry" />
        </mxCell>
        <mxCell id="agBzgVk9PGOCox1UYQvY-120" style="edgeStyle=orthogonalEdgeStyle;rounded=0;orthogonalLoop=1;jettySize=auto;html=1;entryX=0.5;entryY=0;entryDx=0;entryDy=0;" edge="1" parent="agBzgVk9PGOCox1UYQvY-1" source="agBzgVk9PGOCox1UYQvY-95" target="agBzgVk9PGOCox1UYQvY-119">
          <mxGeometry relative="1" as="geometry" />
        </mxCell>
        <mxCell id="agBzgVk9PGOCox1UYQvY-95" value="Memasukkan ke dalam keranjang belanja" style="rounded=0;whiteSpace=wrap;html=1;" vertex="1" parent="agBzgVk9PGOCox1UYQvY-1">
          <mxGeometry x="314" y="330" width="123" height="50" as="geometry" />
        </mxCell>
        <mxCell id="agBzgVk9PGOCox1UYQvY-102" value="Melakukan pemesanan produk di aplikasi" style="rounded=0;whiteSpace=wrap;html=1;" vertex="1" parent="agBzgVk9PGOCox1UYQvY-1">
          <mxGeometry x="188.5" y="130" width="123" height="50" as="geometry" />
        </mxCell>
        <mxCell id="agBzgVk9PGOCox1UYQvY-111" style="edgeStyle=orthogonalEdgeStyle;rounded=0;orthogonalLoop=1;jettySize=auto;html=1;entryX=0.5;entryY=0;entryDx=0;entryDy=0;" edge="1" parent="agBzgVk9PGOCox1UYQvY-1" source="agBzgVk9PGOCox1UYQvY-103" target="agBzgVk9PGOCox1UYQvY-82">
          <mxGeometry relative="1" as="geometry" />
        </mxCell>
        <mxCell id="agBzgVk9PGOCox1UYQvY-112" style="edgeStyle=orthogonalEdgeStyle;rounded=0;orthogonalLoop=1;jettySize=auto;html=1;entryX=0.5;entryY=0;entryDx=0;entryDy=0;" edge="1" parent="agBzgVk9PGOCox1UYQvY-1" source="agBzgVk9PGOCox1UYQvY-103" target="agBzgVk9PGOCox1UYQvY-105">
          <mxGeometry relative="1" as="geometry" />
        </mxCell>
        <mxCell id="agBzgVk9PGOCox1UYQvY-103" value="" style="rhombus;whiteSpace=wrap;html=1;" vertex="1" parent="agBzgVk9PGOCox1UYQvY-1">
          <mxGeometry x="231" y="200" width="38" height="40" as="geometry" />
        </mxCell>
        <mxCell id="agBzgVk9PGOCox1UYQvY-104" value="Menekan button checkout" style="rounded=0;whiteSpace=wrap;html=1;" vertex="1" parent="agBzgVk9PGOCox1UYQvY-1">
          <mxGeometry x="199" y="620" width="123" height="50" as="geometry" />
        </mxCell>
        <mxCell id="agBzgVk9PGOCox1UYQvY-105" value="Memilih halaman produk" style="rounded=0;whiteSpace=wrap;html=1;" vertex="1" parent="agBzgVk9PGOCox1UYQvY-1">
          <mxGeometry x="314" y="250" width="123" height="50" as="geometry" />
        </mxCell>
        <mxCell id="agBzgVk9PGOCox1UYQvY-129" style="edgeStyle=orthogonalEdgeStyle;rounded=0;orthogonalLoop=1;jettySize=auto;html=1;entryX=0;entryY=0.5;entryDx=0;entryDy=0;" edge="1" parent="agBzgVk9PGOCox1UYQvY-1" source="agBzgVk9PGOCox1UYQvY-107" target="agBzgVk9PGOCox1UYQvY-104">
          <mxGeometry relative="1" as="geometry">
            <Array as="points">
              <mxPoint x="111" y="645" />
            </Array>
          </mxGeometry>
        </mxCell>
        <mxCell id="agBzgVk9PGOCox1UYQvY-107" value="Memilih produk yang ingin dipesan" style="rounded=0;whiteSpace=wrap;html=1;" vertex="1" parent="agBzgVk9PGOCox1UYQvY-1">
          <mxGeometry x="50" y="560" width="123" height="50" as="geometry" />
        </mxCell>
        <mxCell id="agBzgVk9PGOCox1UYQvY-110" style="edgeStyle=orthogonalEdgeStyle;rounded=0;orthogonalLoop=1;jettySize=auto;html=1;entryX=0.411;entryY=0.17;entryDx=0;entryDy=0;entryPerimeter=0;" edge="1" parent="agBzgVk9PGOCox1UYQvY-1" source="agBzgVk9PGOCox1UYQvY-102" target="agBzgVk9PGOCox1UYQvY-103">
          <mxGeometry relative="1" as="geometry" />
        </mxCell>
        <mxCell id="agBzgVk9PGOCox1UYQvY-119" value="Memilih halaman keranjang belanja" style="rounded=0;whiteSpace=wrap;html=1;" vertex="1" parent="agBzgVk9PGOCox1UYQvY-1">
          <mxGeometry x="314" y="410" width="123" height="50" as="geometry" />
        </mxCell>
        <mxCell id="agBzgVk9PGOCox1UYQvY-134" value="Mengisi data transaksi dan menekan button pesan sekarang" style="rounded=0;whiteSpace=wrap;html=1;" vertex="1" parent="agBzgVk9PGOCox1UYQvY-1">
          <mxGeometry x="195" y="760" width="123" height="50" as="geometry" />
        </mxCell>
        <mxCell id="agBzgVk9PGOCox1UYQvY-139" value="Membuka Halaman riwayat belanja" style="rounded=0;whiteSpace=wrap;html=1;" vertex="1" parent="agBzgVk9PGOCox1UYQvY-1">
          <mxGeometry x="192.5" y="840" width="123" height="50" as="geometry" />
        </mxCell>
        <mxCell id="agBzgVk9PGOCox1UYQvY-218" value="Finish" style="ellipse;whiteSpace=wrap;html=1;" vertex="1" parent="agBzgVk9PGOCox1UYQvY-1">
          <mxGeometry x="192.5" y="1040" width="115" height="50" as="geometry" />
        </mxCell>
        <mxCell id="agBzgVk9PGOCox1UYQvY-18" value="Sistem (aplikasi)" style="swimlane;whiteSpace=wrap;html=1;" vertex="1" parent="1">
          <mxGeometry x="800" y="340" width="340" height="1110" as="geometry">
            <mxRectangle x="140" y="520" width="140" height="30" as="alternateBounds" />
          </mxGeometry>
        </mxCell>
        <mxCell id="agBzgVk9PGOCox1UYQvY-94" value="Sistem menampilkan halaman produk" style="rounded=0;whiteSpace=wrap;html=1;" vertex="1" parent="agBzgVk9PGOCox1UYQvY-18">
          <mxGeometry x="100" y="250" width="123" height="50" as="geometry" />
        </mxCell>
        <mxCell id="agBzgVk9PGOCox1UYQvY-100" value="Sistem menampilkan halaman keranjang belanja" style="rounded=0;whiteSpace=wrap;html=1;" vertex="1" parent="agBzgVk9PGOCox1UYQvY-18">
          <mxGeometry x="100" y="410" width="123" height="50" as="geometry" />
        </mxCell>
        <mxCell id="agBzgVk9PGOCox1UYQvY-106" value="Sistem menampilkan halaman form cepat" style="rounded=0;whiteSpace=wrap;html=1;" vertex="1" parent="agBzgVk9PGOCox1UYQvY-18">
          <mxGeometry x="100" y="500" width="123" height="50" as="geometry" />
        </mxCell>
        <mxCell id="agBzgVk9PGOCox1UYQvY-131" value="Sistem menampilkan halaman proses transaksi" style="rounded=0;whiteSpace=wrap;html=1;" vertex="1" parent="agBzgVk9PGOCox1UYQvY-18">
          <mxGeometry x="100" y="670" width="123" height="50" as="geometry" />
        </mxCell>
        <mxCell id="agBzgVk9PGOCox1UYQvY-138" value="menampilkan halaman pesanan selesai" style="rounded=0;whiteSpace=wrap;html=1;" vertex="1" parent="agBzgVk9PGOCox1UYQvY-18">
          <mxGeometry x="100" y="760" width="123" height="50" as="geometry" />
        </mxCell>
        <mxCell id="agBzgVk9PGOCox1UYQvY-140" value="Menampilkan halaman riwayat belanja dengan status diproses" style="rounded=0;whiteSpace=wrap;html=1;" vertex="1" parent="agBzgVk9PGOCox1UYQvY-18">
          <mxGeometry x="100" y="920" width="130" height="50" as="geometry" />
        </mxCell>
        <mxCell id="agBzgVk9PGOCox1UYQvY-216" style="edgeStyle=orthogonalEdgeStyle;rounded=0;orthogonalLoop=1;jettySize=auto;html=1;" edge="1" parent="agBzgVk9PGOCox1UYQvY-18" source="agBzgVk9PGOCox1UYQvY-213" target="agBzgVk9PGOCox1UYQvY-140">
          <mxGeometry relative="1" as="geometry" />
        </mxCell>
        <mxCell id="agBzgVk9PGOCox1UYQvY-230" style="edgeStyle=orthogonalEdgeStyle;rounded=0;orthogonalLoop=1;jettySize=auto;html=1;entryX=0;entryY=0.5;entryDx=0;entryDy=0;" edge="1" parent="agBzgVk9PGOCox1UYQvY-18" source="agBzgVk9PGOCox1UYQvY-213" target="agBzgVk9PGOCox1UYQvY-215">
          <mxGeometry relative="1" as="geometry">
            <Array as="points">
              <mxPoint x="39" y="1025" />
            </Array>
          </mxGeometry>
        </mxCell>
        <mxCell id="agBzgVk9PGOCox1UYQvY-213" value="" style="rhombus;whiteSpace=wrap;html=1;" vertex="1" parent="agBzgVk9PGOCox1UYQvY-18">
          <mxGeometry x="20" y="925" width="38" height="40" as="geometry" />
        </mxCell>
        <mxCell id="agBzgVk9PGOCox1UYQvY-215" value="Menampilkan halaman riwayat belanja dengan status selesai" style="rounded=0;whiteSpace=wrap;html=1;" vertex="1" parent="agBzgVk9PGOCox1UYQvY-18">
          <mxGeometry x="100" y="1000" width="130" height="50" as="geometry" />
        </mxCell>
        <mxCell id="agBzgVk9PGOCox1UYQvY-67" value="Pemilik Toko" style="swimlane;whiteSpace=wrap;html=1;" vertex="1" parent="1">
          <mxGeometry x="1480" y="340" width="500" height="1110" as="geometry">
            <mxRectangle x="140" y="520" width="140" height="30" as="alternateBounds" />
          </mxGeometry>
        </mxCell>
        <mxCell id="agBzgVk9PGOCox1UYQvY-200" style="edgeStyle=orthogonalEdgeStyle;rounded=0;orthogonalLoop=1;jettySize=auto;html=1;entryX=0.5;entryY=0;entryDx=0;entryDy=0;" edge="1" parent="agBzgVk9PGOCox1UYQvY-67" source="agBzgVk9PGOCox1UYQvY-150" target="agBzgVk9PGOCox1UYQvY-166">
          <mxGeometry relative="1" as="geometry" />
        </mxCell>
        <mxCell id="agBzgVk9PGOCox1UYQvY-150" value="Membuka website" style="rounded=0;whiteSpace=wrap;html=1;" vertex="1" parent="agBzgVk9PGOCox1UYQvY-67">
          <mxGeometry x="188.5" y="120" width="123" height="50" as="geometry" />
        </mxCell>
        <mxCell id="agBzgVk9PGOCox1UYQvY-196" value="" style="edgeStyle=orthogonalEdgeStyle;rounded=0;orthogonalLoop=1;jettySize=auto;html=1;" edge="1" parent="agBzgVk9PGOCox1UYQvY-67" source="agBzgVk9PGOCox1UYQvY-158">
          <mxGeometry relative="1" as="geometry">
            <mxPoint x="250" y="120" as="targetPoint" />
          </mxGeometry>
        </mxCell>
        <mxCell id="agBzgVk9PGOCox1UYQvY-158" value="Start" style="ellipse;whiteSpace=wrap;html=1;" vertex="1" parent="agBzgVk9PGOCox1UYQvY-67">
          <mxGeometry x="192.5" y="50" width="115" height="50" as="geometry" />
        </mxCell>
        <mxCell id="agBzgVk9PGOCox1UYQvY-207" style="edgeStyle=orthogonalEdgeStyle;rounded=0;orthogonalLoop=1;jettySize=auto;html=1;entryX=0.5;entryY=0;entryDx=0;entryDy=0;" edge="1" parent="agBzgVk9PGOCox1UYQvY-67" source="agBzgVk9PGOCox1UYQvY-166" target="agBzgVk9PGOCox1UYQvY-198">
          <mxGeometry relative="1" as="geometry" />
        </mxCell>
        <mxCell id="agBzgVk9PGOCox1UYQvY-166" value="Membuka Halaman Transaksi" style="rounded=0;whiteSpace=wrap;html=1;" vertex="1" parent="agBzgVk9PGOCox1UYQvY-67">
          <mxGeometry x="188.5" y="210" width="123" height="50" as="geometry" />
        </mxCell>
        <mxCell id="agBzgVk9PGOCox1UYQvY-231" style="edgeStyle=orthogonalEdgeStyle;rounded=0;orthogonalLoop=1;jettySize=auto;html=1;entryX=1;entryY=0.5;entryDx=0;entryDy=0;strokeColor=light-dark(#FF591C,#FFFFFF);" edge="1" parent="agBzgVk9PGOCox1UYQvY-67" source="agBzgVk9PGOCox1UYQvY-198" target="agBzgVk9PGOCox1UYQvY-150">
          <mxGeometry relative="1" as="geometry">
            <Array as="points">
              <mxPoint x="370" y="325" />
              <mxPoint x="370" y="145" />
            </Array>
          </mxGeometry>
        </mxCell>
        <mxCell id="agBzgVk9PGOCox1UYQvY-198" value="Menyelesaikan pesanan pelanggan" style="rounded=0;whiteSpace=wrap;html=1;" vertex="1" parent="agBzgVk9PGOCox1UYQvY-67">
          <mxGeometry x="188.5" y="300" width="123" height="50" as="geometry" />
        </mxCell>
        <mxCell id="agBzgVk9PGOCox1UYQvY-209" value="Menekan button edit data" style="rounded=0;whiteSpace=wrap;html=1;" vertex="1" parent="agBzgVk9PGOCox1UYQvY-67">
          <mxGeometry x="40" y="370" width="123" height="40" as="geometry" />
        </mxCell>
        <mxCell id="agBzgVk9PGOCox1UYQvY-211" value="Mengubah status transaksi menjadi selesai" style="rounded=0;whiteSpace=wrap;html=1;" vertex="1" parent="agBzgVk9PGOCox1UYQvY-67">
          <mxGeometry x="50" y="440" width="123" height="40" as="geometry" />
        </mxCell>
        <mxCell id="agBzgVk9PGOCox1UYQvY-228" value="Finish" style="ellipse;whiteSpace=wrap;html=1;" vertex="1" parent="agBzgVk9PGOCox1UYQvY-67">
          <mxGeometry x="173" y="600" width="115" height="50" as="geometry" />
        </mxCell>
        <mxCell id="agBzgVk9PGOCox1UYQvY-116" style="edgeStyle=orthogonalEdgeStyle;rounded=0;orthogonalLoop=1;jettySize=auto;html=1;" edge="1" parent="1" source="agBzgVk9PGOCox1UYQvY-105" target="agBzgVk9PGOCox1UYQvY-94">
          <mxGeometry relative="1" as="geometry" />
        </mxCell>
        <mxCell id="agBzgVk9PGOCox1UYQvY-118" style="edgeStyle=orthogonalEdgeStyle;rounded=0;orthogonalLoop=1;jettySize=auto;html=1;entryX=1;entryY=0.5;entryDx=0;entryDy=0;" edge="1" parent="1" source="agBzgVk9PGOCox1UYQvY-94" target="agBzgVk9PGOCox1UYQvY-95">
          <mxGeometry relative="1" as="geometry">
            <Array as="points">
              <mxPoint x="961" y="695" />
            </Array>
          </mxGeometry>
        </mxCell>
        <mxCell id="agBzgVk9PGOCox1UYQvY-121" style="edgeStyle=orthogonalEdgeStyle;rounded=0;orthogonalLoop=1;jettySize=auto;html=1;" edge="1" parent="1" source="agBzgVk9PGOCox1UYQvY-119" target="agBzgVk9PGOCox1UYQvY-100">
          <mxGeometry relative="1" as="geometry" />
        </mxCell>
        <mxCell id="agBzgVk9PGOCox1UYQvY-122" style="edgeStyle=orthogonalEdgeStyle;rounded=0;orthogonalLoop=1;jettySize=auto;html=1;entryX=0;entryY=0.5;entryDx=0;entryDy=0;" edge="1" parent="1" source="agBzgVk9PGOCox1UYQvY-82" target="agBzgVk9PGOCox1UYQvY-106">
          <mxGeometry relative="1" as="geometry">
            <Array as="points">
              <mxPoint x="411" y="865" />
            </Array>
          </mxGeometry>
        </mxCell>
        <mxCell id="agBzgVk9PGOCox1UYQvY-124" style="edgeStyle=orthogonalEdgeStyle;rounded=0;orthogonalLoop=1;jettySize=auto;html=1;entryX=1;entryY=0.5;entryDx=0;entryDy=0;" edge="1" parent="1" source="agBzgVk9PGOCox1UYQvY-106" target="agBzgVk9PGOCox1UYQvY-107">
          <mxGeometry relative="1" as="geometry">
            <Array as="points">
              <mxPoint x="1060" y="865" />
              <mxPoint x="1060" y="925" />
            </Array>
          </mxGeometry>
        </mxCell>
        <mxCell id="agBzgVk9PGOCox1UYQvY-130" style="edgeStyle=orthogonalEdgeStyle;rounded=0;orthogonalLoop=1;jettySize=auto;html=1;entryX=1;entryY=0.5;entryDx=0;entryDy=0;" edge="1" parent="1" source="agBzgVk9PGOCox1UYQvY-100" target="agBzgVk9PGOCox1UYQvY-104">
          <mxGeometry relative="1" as="geometry">
            <Array as="points">
              <mxPoint x="1080" y="775" />
              <mxPoint x="1080" y="985" />
            </Array>
          </mxGeometry>
        </mxCell>
        <mxCell id="agBzgVk9PGOCox1UYQvY-133" style="edgeStyle=orthogonalEdgeStyle;rounded=0;orthogonalLoop=1;jettySize=auto;html=1;entryX=0;entryY=0.5;entryDx=0;entryDy=0;" edge="1" parent="1" source="agBzgVk9PGOCox1UYQvY-104" target="agBzgVk9PGOCox1UYQvY-131">
          <mxGeometry relative="1" as="geometry">
            <Array as="points">
              <mxPoint x="561" y="1035" />
            </Array>
          </mxGeometry>
        </mxCell>
        <mxCell id="agBzgVk9PGOCox1UYQvY-137" style="edgeStyle=orthogonalEdgeStyle;rounded=0;orthogonalLoop=1;jettySize=auto;html=1;" edge="1" parent="1" source="agBzgVk9PGOCox1UYQvY-131" target="agBzgVk9PGOCox1UYQvY-134">
          <mxGeometry relative="1" as="geometry">
            <Array as="points">
              <mxPoint x="961" y="1080" />
              <mxPoint x="557" y="1080" />
            </Array>
          </mxGeometry>
        </mxCell>
        <mxCell id="agBzgVk9PGOCox1UYQvY-142" style="edgeStyle=orthogonalEdgeStyle;rounded=0;orthogonalLoop=1;jettySize=auto;html=1;entryX=0;entryY=0.5;entryDx=0;entryDy=0;" edge="1" parent="1" source="agBzgVk9PGOCox1UYQvY-134" target="agBzgVk9PGOCox1UYQvY-138">
          <mxGeometry relative="1" as="geometry" />
        </mxCell>
        <mxCell id="agBzgVk9PGOCox1UYQvY-143" style="edgeStyle=orthogonalEdgeStyle;rounded=0;orthogonalLoop=1;jettySize=auto;html=1;entryX=1;entryY=0.5;entryDx=0;entryDy=0;" edge="1" parent="1" source="agBzgVk9PGOCox1UYQvY-138" target="agBzgVk9PGOCox1UYQvY-139">
          <mxGeometry relative="1" as="geometry">
            <Array as="points">
              <mxPoint x="962" y="1205" />
            </Array>
          </mxGeometry>
        </mxCell>
        <mxCell id="agBzgVk9PGOCox1UYQvY-151" value="Sistem (Website)" style="swimlane;whiteSpace=wrap;html=1;" vertex="1" parent="1">
          <mxGeometry x="1140" y="340" width="340" height="1110" as="geometry">
            <mxRectangle x="140" y="520" width="140" height="30" as="alternateBounds" />
          </mxGeometry>
        </mxCell>
        <mxCell id="agBzgVk9PGOCox1UYQvY-186" value="Sistem melakukan validasi data" style="rounded=0;whiteSpace=wrap;html=1;" vertex="1" parent="agBzgVk9PGOCox1UYQvY-151">
          <mxGeometry x="151" y="520" width="123" height="40" as="geometry" />
        </mxCell>
        <mxCell id="agBzgVk9PGOCox1UYQvY-203" value="Sistem menampilkan data transaksi" style="rounded=0;whiteSpace=wrap;html=1;" vertex="1" parent="agBzgVk9PGOCox1UYQvY-151">
          <mxGeometry x="135" y="215" width="123" height="40" as="geometry" />
        </mxCell>
        <mxCell id="agBzgVk9PGOCox1UYQvY-210" value="Sistem menampilkan form edit data transaksi" style="rounded=0;whiteSpace=wrap;html=1;" vertex="1" parent="agBzgVk9PGOCox1UYQvY-151">
          <mxGeometry x="151" y="370" width="135" height="40" as="geometry" />
        </mxCell>
        <mxCell id="agBzgVk9PGOCox1UYQvY-192" style="edgeStyle=orthogonalEdgeStyle;rounded=0;orthogonalLoop=1;jettySize=auto;html=1;" edge="1" parent="1" source="agBzgVk9PGOCox1UYQvY-138" target="agBzgVk9PGOCox1UYQvY-166">
          <mxGeometry relative="1" as="geometry">
            <mxPoint x="1651.4999999999995" y="1000" as="targetPoint" />
            <Array as="points">
              <mxPoint x="1930" y="1125" />
              <mxPoint x="1930" y="575" />
            </Array>
          </mxGeometry>
        </mxCell>
        <mxCell id="agBzgVk9PGOCox1UYQvY-206" style="edgeStyle=orthogonalEdgeStyle;rounded=0;orthogonalLoop=1;jettySize=auto;html=1;" edge="1" parent="1" source="agBzgVk9PGOCox1UYQvY-166" target="agBzgVk9PGOCox1UYQvY-203">
          <mxGeometry relative="1" as="geometry" />
        </mxCell>
        <mxCell id="agBzgVk9PGOCox1UYQvY-217" style="edgeStyle=orthogonalEdgeStyle;rounded=0;orthogonalLoop=1;jettySize=auto;html=1;entryX=1;entryY=0.5;entryDx=0;entryDy=0;" edge="1" parent="1" source="agBzgVk9PGOCox1UYQvY-140" target="agBzgVk9PGOCox1UYQvY-166">
          <mxGeometry relative="1" as="geometry">
            <Array as="points">
              <mxPoint x="1930" y="1285" />
              <mxPoint x="1930" y="575" />
            </Array>
          </mxGeometry>
        </mxCell>
        <mxCell id="agBzgVk9PGOCox1UYQvY-222" style="edgeStyle=orthogonalEdgeStyle;rounded=0;orthogonalLoop=1;jettySize=auto;html=1;entryX=1;entryY=0.5;entryDx=0;entryDy=0;" edge="1" parent="1" source="agBzgVk9PGOCox1UYQvY-215" target="agBzgVk9PGOCox1UYQvY-218">
          <mxGeometry relative="1" as="geometry">
            <mxPoint x="950" y="1450" as="targetPoint" />
            <Array as="points">
              <mxPoint x="965" y="1405" />
            </Array>
          </mxGeometry>
        </mxCell>
        <mxCell id="agBzgVk9PGOCox1UYQvY-223" style="edgeStyle=orthogonalEdgeStyle;rounded=0;orthogonalLoop=1;jettySize=auto;html=1;entryX=0;entryY=0.5;entryDx=0;entryDy=0;" edge="1" parent="1" source="agBzgVk9PGOCox1UYQvY-139" target="agBzgVk9PGOCox1UYQvY-213">
          <mxGeometry relative="1" as="geometry">
            <Array as="points">
              <mxPoint x="554" y="1285" />
            </Array>
          </mxGeometry>
        </mxCell>
        <mxCell id="agBzgVk9PGOCox1UYQvY-224" style="edgeStyle=orthogonalEdgeStyle;rounded=0;orthogonalLoop=1;jettySize=auto;html=1;entryX=0.5;entryY=0;entryDx=0;entryDy=0;" edge="1" parent="1" source="agBzgVk9PGOCox1UYQvY-203" target="agBzgVk9PGOCox1UYQvY-209">
          <mxGeometry relative="1" as="geometry">
            <Array as="points">
              <mxPoint x="1340" y="660" />
              <mxPoint x="1582" y="660" />
            </Array>
          </mxGeometry>
        </mxCell>
        <mxCell id="agBzgVk9PGOCox1UYQvY-225" style="edgeStyle=orthogonalEdgeStyle;rounded=0;orthogonalLoop=1;jettySize=auto;html=1;entryX=1;entryY=0.5;entryDx=0;entryDy=0;" edge="1" parent="1" source="agBzgVk9PGOCox1UYQvY-209" target="agBzgVk9PGOCox1UYQvY-210">
          <mxGeometry relative="1" as="geometry" />
        </mxCell>
        <mxCell id="agBzgVk9PGOCox1UYQvY-226" style="edgeStyle=orthogonalEdgeStyle;rounded=0;orthogonalLoop=1;jettySize=auto;html=1;entryX=0;entryY=0.5;entryDx=0;entryDy=0;" edge="1" parent="1" source="agBzgVk9PGOCox1UYQvY-210" target="agBzgVk9PGOCox1UYQvY-211">
          <mxGeometry relative="1" as="geometry">
            <Array as="points">
              <mxPoint x="1359" y="800" />
            </Array>
          </mxGeometry>
        </mxCell>
        <mxCell id="agBzgVk9PGOCox1UYQvY-227" style="edgeStyle=orthogonalEdgeStyle;rounded=0;orthogonalLoop=1;jettySize=auto;html=1;entryX=1;entryY=0.5;entryDx=0;entryDy=0;" edge="1" parent="1" source="agBzgVk9PGOCox1UYQvY-211" target="agBzgVk9PGOCox1UYQvY-186">
          <mxGeometry relative="1" as="geometry">
            <Array as="points">
              <mxPoint x="1592" y="880" />
            </Array>
          </mxGeometry>
        </mxCell>
        <mxCell id="agBzgVk9PGOCox1UYQvY-229" style="edgeStyle=orthogonalEdgeStyle;rounded=0;orthogonalLoop=1;jettySize=auto;html=1;entryX=0;entryY=0.5;entryDx=0;entryDy=0;" edge="1" parent="1" source="agBzgVk9PGOCox1UYQvY-186" target="agBzgVk9PGOCox1UYQvY-228">
          <mxGeometry relative="1" as="geometry">
            <Array as="points">
              <mxPoint x="1353" y="965" />
            </Array>
          </mxGeometry>
        </mxCell>
      </root>
    </mxGraphModel>
  </diagram>
</mxfile>
